<svg id="Icon_simple-behance" data-name="Icon simple-behance" xmlns="http://www.w3.org/2000/svg" width="28" height="15.64" viewBox="0 0 28 15.64">
  <path id="Icon_simple-behance-2" data-name="Icon simple-behance" d="M8.1,6.754a11.607,11.607,0,0,1,2.241.2,5.386,5.386,0,0,1,1.733.636,3.052,3.052,0,0,1,1.12,1.168,3.789,3.789,0,0,1,.4,1.8A3.129,3.129,0,0,1,13,12.5a4.21,4.21,0,0,1-1.753,1.272A4.153,4.153,0,0,1,13.6,15.2a3.952,3.952,0,0,1,.776,2.461,3.93,3.93,0,0,1-.479,2.013,4.019,4.019,0,0,1-1.354,1.408,6.292,6.292,0,0,1-1.949.8,9.5,9.5,0,0,1-2.229.265H0V6.762H8.1ZM19.771,19.437a3.275,3.275,0,0,0,2.211.671,3.315,3.315,0,0,0,1.786-.466,1.98,1.98,0,0,0,.91-.98H27.7a5.126,5.126,0,0,1-2.218,2.868,6.987,6.987,0,0,1-3.595.866,7.918,7.918,0,0,1-2.652-.417,5.867,5.867,0,0,1-2.007-1.189,5.254,5.254,0,0,1-1.257-1.846,6.187,6.187,0,0,1-.435-2.367A5.747,5.747,0,0,1,16,14.25a5.631,5.631,0,0,1,1.307-1.867,6.417,6.417,0,0,1,2.026-1.245,6.905,6.905,0,0,1,2.591-.452,6.472,6.472,0,0,1,2.778.545,5.493,5.493,0,0,1,1.937,1.46,5.552,5.552,0,0,1,1.1,2.106,7.551,7.551,0,0,1,.245,2.482H19.011a2.962,2.962,0,0,0,.829,2.153l-.093.031ZM7.82,19.489a5.479,5.479,0,0,0,1.057-.1,2.9,2.9,0,0,0,.891-.313,1.621,1.621,0,0,0,.607-.608,1.946,1.946,0,0,0,.222-1,1.925,1.925,0,0,0-.747-1.689,3.5,3.5,0,0,0-1.972-.5h-4.1V19.5H7.82v-.031ZM23.7,13.6a2.752,2.752,0,0,0-1.934-.617,3.189,3.189,0,0,0-1.361.248,2.487,2.487,0,0,0-.864.615,2.1,2.1,0,0,0-.458.782,3.311,3.311,0,0,0-.158.74h5.558a2.822,2.822,0,0,0-.794-1.762v.01ZM7.61,12.956a2.954,2.954,0,0,0,1.663-.43,1.533,1.533,0,0,0,.647-1.4,1.792,1.792,0,0,0-.21-.882,1.622,1.622,0,0,0-.584-.534,2.667,2.667,0,0,0-.84-.268A5.766,5.766,0,0,0,7.3,9.37H3.77v3.587H7.61Zm10.618-5.17h6.965V9.3H18.228V7.784Z" transform="translate(0 -6.754)" fill="#913333"/>
</svg>
