<svg id="Icon_simple-instagram" data-name="Icon simple-instagram" xmlns="http://www.w3.org/2000/svg" width="22" height="21.197" viewBox="0 0 22 21.197">
  <path id="Icon_simple-instagram-2" data-name="Icon simple-instagram" d="M11,0C8.012,0,7.639.013,6.465.064A8.38,8.38,0,0,0,3.8.556,5.412,5.412,0,0,0,1.846,1.779,5.156,5.156,0,0,0,.577,3.656,7.544,7.544,0,0,0,.066,6.229C.011,7.36,0,7.719,0,10.6s.014,3.239.066,4.369A7.571,7.571,0,0,0,.577,17.54a5.182,5.182,0,0,0,1.269,1.878A5.4,5.4,0,0,0,3.8,20.64a8.391,8.391,0,0,0,2.67.493c1.173.053,1.546.064,4.535.064s3.361-.013,4.535-.064a8.41,8.41,0,0,0,2.67-.493,5.432,5.432,0,0,0,1.949-1.222,5.16,5.16,0,0,0,1.269-1.878,7.571,7.571,0,0,0,.512-2.573c.055-1.13.066-1.49.066-4.369s-.014-3.239-.066-4.369a7.588,7.588,0,0,0-.512-2.573,5.186,5.186,0,0,0-1.269-1.878A5.385,5.385,0,0,0,18.2.556a8.361,8.361,0,0,0-2.67-.493C14.361.011,13.988,0,11,0Zm0,1.908c2.936,0,3.286.014,4.446.063a6.261,6.261,0,0,1,2.041.367,3.432,3.432,0,0,1,1.267.791,3.265,3.265,0,0,1,.821,1.22,5.666,5.666,0,0,1,.379,1.967c.052,1.118.064,1.454.064,4.283S20,13.765,19.95,14.882a5.776,5.776,0,0,1-.386,1.967,3.356,3.356,0,0,1-.824,1.221,3.447,3.447,0,0,1-1.265.791,6.321,6.321,0,0,1-2.049.365c-1.168.05-1.512.062-4.454.062s-3.287-.013-4.454-.065a6.443,6.443,0,0,1-2.05-.372A3.421,3.421,0,0,1,3.2,18.056a3.21,3.21,0,0,1-.825-1.219,5.824,5.824,0,0,1-.385-1.974c-.041-1.113-.056-1.456-.056-4.278s.015-3.167.056-4.293A5.818,5.818,0,0,1,2.38,4.319,3.133,3.133,0,0,1,3.2,3.1a3.268,3.268,0,0,1,1.264-.793A6.289,6.289,0,0,1,6.5,1.934c1.169-.04,1.512-.053,4.454-.053L11,1.908Zm0,3.248A5.548,5.548,0,0,0,5.351,10.6,5.548,5.548,0,0,0,11,16.041,5.548,5.548,0,0,0,16.648,10.6,5.548,5.548,0,0,0,11,5.156Zm0,8.975A3.6,3.6,0,0,1,7.333,10.6,3.6,3.6,0,0,1,11,7.066,3.6,3.6,0,0,1,14.667,10.6,3.6,3.6,0,0,1,11,14.131Zm7.192-9.19a1.321,1.321,0,0,1-2.64,0,1.321,1.321,0,0,1,2.64,0Z" transform="translate(0 0)" fill="#913333"/>
</svg>
