<svg xmlns="http://www.w3.org/2000/svg" xmlns:xlink="http://www.w3.org/1999/xlink" width="119.219" height="137.241" viewBox="0 0 119.219 137.241">
  <defs>
    <filter id="Trazado_12" x="0" y="0" width="119.219" height="137.241" filterUnits="userSpaceOnUse">
      <feOffset dy="3" input="SourceAlpha"/>
      <feGaussianBlur stdDeviation="3" result="blur"/>
      <feFlood flood-color="#0c0606" flood-opacity="0.161"/>
      <feComposite operator="in" in2="blur"/>
      <feComposite in="SourceGraphic"/>
    </filter>
  </defs>
  <g id="Grupo_38" data-name="Grupo 38" transform="translate(-497.573 -216.759)">
    <g id="Grupo_32" data-name="Grupo 32" transform="translate(506.573 222.759)">
      <path id="Trazado_11" data-name="Trazado 11" d="M914.075,281.258" transform="translate(-827.951 -273.436)" fill="#fbe3e3"/>
      <g transform="matrix(1, 0, 0, 1, -9, -6)" filter="url(#Trazado_12)">
        <path id="Trazado_12-2" data-name="Trazado 12" d="M578.786,277.086a24.211,24.211,0,0,0,9.632-32.838c14.966,27.341,25.641,53.449,15.2,82.929-10.505,29.666-42.908,43.87-69.65,32.283-.836-.362-1.641-.791-2.453-1.207h0a43.393,43.393,0,0,1-2.367-77.345c7.78-4.256,20.252-5.417,25.317-4.464S570.881,281.41,578.786,277.086Z" transform="translate(-497.57 -238.25)" fill="#fbe3e3"/>
      </g>
    </g>
    <g id="Grupo_33" data-name="Grupo 33" transform="translate(506.573 217)">
      <path id="Trazado_13" data-name="Trazado 13" d="M814.078,246.263" transform="translate(-749.088 -240.078)" fill="#c76969"/>
      <path id="Trazado_14" data-name="Trazado 14" d="M564.2,248.727A22.485,22.485,0,0,0,566.058,217c19.252,21.616,34.363,43.014,31.071,71.87-3.313,29.039-29.669,48.657-56.288,43.755-.832-.153-1.65-.373-2.472-.581h0a40.3,40.3,0,0,1-18.291-69.5c6.152-5.476,17.2-9.13,21.979-9.325S557.947,254.29,564.2,248.727Z" transform="translate(-506.573 -217)" fill="#c76969"/>
    </g>
    <g id="Grupo_34" data-name="Grupo 34" transform="translate(506.573 218.61)">
      <path id="Trazado_15" data-name="Trazado 15" d="M681.931,241.944" transform="translate(-644.87 -238.282)" fill="#913333"/>
      <path id="Trazado_16" data-name="Trazado 16" d="M544.707,252.019a20.1,20.1,0,0,0-7.506-27.4c22.492,12.8,41.415,26.594,46.887,51.976,5.506,25.542-11.2,49.7-35.148,53.169-.749.108-1.5.156-2.26.216h0A36.027,36.027,0,0,1,511.3,276.352c3.643-6.4,11.95-12.655,15.945-14.189S541.006,258.52,544.707,252.019Z" transform="translate(-506.573 -224.616)" fill="#913333"/>
    </g>
    <g id="Grupo_35" data-name="Grupo 35" transform="translate(506.573 230.386)">
      <path id="Trazado_17" data-name="Trazado 17" d="M561.867,284.913" transform="translate(-550.181 -283.946)" fill="#600"/>
      <path id="Trazado_18" data-name="Trazado 18" d="M526.751,300.588a17.822,17.822,0,0,0-14.983-20.25c22.694,3.375,42.757,8.719,55.41,27.949,12.734,19.352,6.661,44.676-12.025,55.214-.584.329-1.194.611-1.8.9h0a31.941,31.941,0,0,1-46.429-33c.962-6.457,5.826-14.289,8.637-16.838S525.774,307.148,526.751,300.588Z" transform="translate(-506.573 -280.338)" fill="#600"/>
    </g>
    <g id="Grupo_37" data-name="Grupo 37" transform="translate(519.997 261.927)">
      <path id="Trazado_19" data-name="Trazado 19" d="M605.561,447.768a6.927,6.927,0,0,1-.057,1.132,5.558,5.558,0,1,1-9.127-4.306,7.1,7.1,0,0,1,1.367-.924,13.24,13.24,0,0,1,8.137-1.751C605.754,444.012,605.5,445.895,605.561,447.768Z" transform="translate(-589.251 -439.215)" fill="#fbe3e3"/>
      <g id="Grupo_36" data-name="Grupo 36" transform="translate(0 19.416)">
        <path id="Trazado_20" data-name="Trazado 20" d="M648.26,521.444" transform="translate(-631.739 -521.444)" fill="#fbe3e3"/>
        <path id="Trazado_21" data-name="Trazado 21" d="M583.652,526.138a4.694,4.694,0,0,1,4.689-4.694c-6.043,0-11.476.612-15.519,5.131a10.21,10.21,0,0,0,.99,14.85c.139.109.287.206.434.3h0a8.412,8.412,0,0,0,13.375-6.794,9.24,9.24,0,0,0-1.6-4.721C585.391,529.441,583.652,527.884,583.652,526.138Z" transform="translate(-570.092 -521.444)" fill="#fbe3e3"/>
      </g>
      <path id="Trazado_22" data-name="Trazado 22" d="M639.779,465.024a3.037,3.037,0,0,1-1.707.755,1.362,1.362,0,0,1-1.224-.875,5.258,5.258,0,0,1-.451-2.387V446.6a21.006,21.006,0,0,0-1.063-6.843,14.966,14.966,0,0,0-3.157-5.371,14.552,14.552,0,0,0-5.123-3.541,17.856,17.856,0,0,0-6.96-1.273,16.591,16.591,0,0,0-5.316.755,10.931,10.931,0,0,0-3.466,1.854,6.632,6.632,0,0,1,1.3-.631,11.578,11.578,0,0,1,8.056-.274,5.97,5.97,0,0,1,1.328.484,5.345,5.345,0,0,1,2.223,2.426,16.17,16.17,0,0,1,1.385,4.735,49.631,49.631,0,0,1,.484,7.678s.264,14.644.967,17.9,3.236,6.445,7.024,6.445a6.479,6.479,0,0,0,2.867-.677,8.948,8.948,0,0,0,2.481-1.79,8.7,8.7,0,0,0,1.74-2.546,7.12,7.12,0,0,0,.644-2.944A12.005,12.005,0,0,1,639.779,465.024Z" transform="translate(-602.6 -429.575)" fill="#fbe3e3"/>
    </g>
  </g>
</svg>
